<?xml version="1.0" encoding="UTF-8" standalone="no"?>
<!-- Created with Inkscape (http://www.inkscape.org/) -->

<svg
   xmlns:dc="http://purl.org/dc/elements/1.1/"
   xmlns:cc="http://creativecommons.org/ns#"
   xmlns:rdf="http://www.w3.org/1999/02/22-rdf-syntax-ns#"
   xmlns:svg="http://www.w3.org/2000/svg"
   xmlns="http://www.w3.org/2000/svg"
   xmlns:sodipodi="http://sodipodi.sourceforge.net/DTD/sodipodi-0.dtd"
   xmlns:inkscape="http://www.inkscape.org/namespaces/inkscape"
   width="64px"
   height="64px"
   id="svg2985"
   version="1.1"
   inkscape:version="0.48.4 r9939"
   sodipodi:docname="New document 2">
  <defs
     id="defs2987" />
  <sodipodi:namedview
     id="base"
     pagecolor="#ffffff"
     bordercolor="#666666"
     borderopacity="1.0"
     inkscape:pageopacity="0.0"
     inkscape:pageshadow="2"
     inkscape:zoom="5.5"
     inkscape:cx="58.468798"
     inkscape:cy="43.469657"
     inkscape:current-layer="layer1"
     showgrid="true"
     inkscape:document-units="px"
     inkscape:grid-bbox="true"
     inkscape:window-width="1855"
     inkscape:window-height="1056"
     inkscape:window-x="65"
     inkscape:window-y="24"
     inkscape:window-maximized="1" />
  <metadata
     id="metadata2990">
    <rdf:RDF>
      <cc:Work
         rdf:about="">
        <dc:format>image/svg+xml</dc:format>
        <dc:type
           rdf:resource="http://purl.org/dc/dcmitype/StillImage" />
        <dc:title></dc:title>
      </cc:Work>
    </rdf:RDF>
  </metadata>
  <g
     id="layer1"
     inkscape:label="Layer 1"
     inkscape:groupmode="layer">
    <g
       id="g3036"
       inkscape:export-filename="/home/remiq/Downloads/ic_cloud_sync.png"
       inkscape:export-xdpi="90"
       inkscape:export-ydpi="90">
      <rect
         inkscape:export-ydpi="90"
         inkscape:export-xdpi="90"
         inkscape:export-filename="/home/remiq/Downloads/ic_cloud_sync.png"
         y="-40"
         x="8"
         height="96"
         width="96"
         id="rect3015"
         style="fill:none;stroke:none" />
      <path
         id="path2995"
         d="M 56 -24 C 44.44 -24 34.42625 -17.455 29.40625 -7.875 C 17.38625 -6.575 8 3.62 8 16 C 8 29.26 18.74 40 32 40 L 84 40 C 95.04 40 104 31.04 104 20 C 104 9.44 95.76625 0.865 85.40625 0.125 C 82.68625 -13.635 70.56 -24 56 -24 z M 56 -11.5625 C 59.840662 -11.5625 63.40411 -10.45837 66.4375 -8.5625 L 62.875 -4.96875 C 60.820122 -6.045116 58.482976 -6.6875 56 -6.6875 C 47.89058 -6.6875 41.3125 -0.109422 41.3125 8 L 48.65625 8 L 38.875 17.78125 C 34.545006 13.360296 31.604598 10.744296 29.09375 8 L 36.4375 8 C 36.4375 -2.812562 45.187438 -11.5625 56 -11.5625 z M 73.125 -1.78125 L 82.90625 8 L 75.5625 8 C 75.5625 18.812562 66.812564 27.5625 56 27.5625 C 52.15934 27.5625 48.595888 26.458366 45.5625 24.5625 L 49.125 20.96875 C 51.179876 22.045114 53.517026 22.6875 56 22.6875 C 64.109422 22.6875 70.6875 16.109422 70.6875 8 L 63.34375 8 L 73.125 -1.78125 z " />
    </g>
  </g>
</svg>
